<?xml version="1.0" encoding="iso-8859-1"?>
<!-- Generator: Adobe Illustrator 18.1.1, SVG Export Plug-In . SVG Version: 6.00 Build 0)  -->
<svg version="1.1" id="Capa_1" xmlns="http://www.w3.org/2000/svg" xmlns:xlink="http://www.w3.org/1999/xlink" x="0px" y="0px"
	 viewBox="0 0 83.208 83.208" style="enable-background:new 0 0 83.208 83.208;" xml:space="preserve">
<g>
	<g>
		<g>
			<polygon style="fill:#010002;" points="25.052,69.154 17.894,76.312 53.683,76.312 46.525,69.154 			"/>
		</g>
		<g>
			<path style="fill:#010002;" d="M83.208,25.685c0-10.361-8.428-18.789-18.789-18.789c-7.831,0-14.537,4.814-17.357,11.631H0
				v46.525h71.577v-22.01C78.391,40.219,83.208,33.509,83.208,25.685z M64.419,42.685c-9.373,0-17-7.627-17-17s7.627-17,17-17
				s17,7.627,17,17S73.792,42.685,64.419,42.685z"/>
		</g>
		<g>
			<polygon style="fill:#010002;" points="72.275,14.319 62.651,27.872 55.465,21.881 51.442,26.713 63.847,37.052 77.396,17.955 
							"/>
		</g>
	</g>
</g>
<g>
</g>
<g>
</g>
<g>
</g>
<g>
</g>
<g>
</g>
<g>
</g>
<g>
</g>
<g>
</g>
<g>
</g>
<g>
</g>
<g>
</g>
<g>
</g>
<g>
</g>
<g>
</g>
<g>
</g>
</svg>
